<svg width="444" height="502" viewBox="0 0 444 502" fill="none" xmlns="http://www.w3.org/2000/svg">
<path d="M324.914 21.0127L273.534 20.917C215.811 20.917 178.508 65.3668 178.508 134.165V186.379H126.848C122.384 186.379 118.77 190.583 118.77 195.767V271.42C118.77 276.605 122.389 280.803 126.848 280.803H178.508V471.701C178.508 476.885 182.123 481.084 186.587 481.084H253.988C258.452 481.084 262.067 476.88 262.067 471.701V280.803H322.469C326.933 280.803 330.548 276.605 330.548 271.42L330.573 195.767C330.573 193.278 329.72 190.894 328.207 189.132C326.694 187.37 324.633 186.379 322.49 186.379H262.067V142.116C262.067 120.842 266.432 110.042 290.294 110.042L324.905 110.027C329.365 110.027 332.98 105.824 332.98 100.644V30.3958C332.98 25.2207 329.369 21.0223 324.914 21.0127Z" fill="#1E212C"/>
</svg>
